# MagicaVoxel @ Ephtracy

# group
g gallinita

# material
mtllib gallinita.mtl
usemtl palette

# normals
vn -1 0 0
vn 1 0 0
vn 0 0 1
vn 0 0 -1
vn 0 -1 0
vn 0 1 0

# texcoords
vt 0.126953 0.5
vt 0.146484 0.5
vt 0.208984 0.5
vt 0.912109 0.5
vt 0.958984 0.5
vt 0.990234 0.5

# verts
v -1.5 0 2.5
v -1.5 0 -1.5
v -1.5 1 1.5
v -1.5 1 0.5
v -1.5 2 1.5
v -1.5 2 0.5
v -1.5 3 2.5
v -1.5 3 -1.5
v -0.5 1 3.5
v -0.5 1 2.5
v -0.5 2 3.5
v -0.5 2 2.5
v -0.5 3 1.5
v -0.5 3 -1.5
v -0.5 4 1.5
v -0.5 4 0.5
v -0.5 4 -0.5
v -0.5 4 -1.5
v -0.5 5 0.5
v -0.5 5 -0.5
v 0.5 1 3.5
v 0.5 1 2.5
v 0.5 2 3.5
v 0.5 2 2.5
v 0.5 3 1.5
v 0.5 3 -1.5
v 0.5 4 1.5
v 0.5 4 0.5
v 0.5 4 -0.5
v 0.5 4 -1.5
v 0.5 5 0.5
v 0.5 5 -0.5
v 1.5 0 2.5
v 1.5 0 -1.5
v 1.5 1 1.5
v 1.5 1 0.5
v 1.5 2 1.5
v 1.5 2 0.5
v 1.5 3 2.5
v 1.5 3 -1.5
v -0.5 1 3.5
v -0.5 2 3.5
v 0.5 1 3.5
v 0.5 2 3.5
v -1.5 0 2.5
v -1.5 3 2.5
v -0.5 0 2.5
v -0.5 1 2.5
v -0.5 2 2.5
v 0.5 0 2.5
v 0.5 1 2.5
v 0.5 2 2.5
v 1.5 0 2.5
v 1.5 3 2.5
v -0.5 3 1.5
v -0.5 4 1.5
v 0.5 3 1.5
v 0.5 4 1.5
v -0.5 4 0.5
v -0.5 5 0.5
v 0.5 4 0.5
v 0.5 5 0.5
v -0.5 4 -0.5
v -0.5 5 -0.5
v 0.5 4 -0.5
v 0.5 5 -0.5
v -1.5 0 -1.5
v -1.5 3 -1.5
v -0.5 3 -1.5
v -0.5 4 -1.5
v 0.5 3 -1.5
v 0.5 4 -1.5
v 1.5 0 -1.5
v 1.5 3 -1.5
v -1.5 0 2.5
v -0.5 0 2.5
v 0.5 0 2.5
v 1.5 0 2.5
v -0.5 0 1.5
v 0.5 0 1.5
v -1.5 0 -1.5
v 1.5 0 -1.5
v -0.5 1 3.5
v 0.5 1 3.5
v -0.5 1 2.5
v 0.5 1 2.5
v -0.5 2 3.5
v 0.5 2 3.5
v -0.5 2 2.5
v 0.5 2 2.5
v -1.5 3 2.5
v 1.5 3 2.5
v -0.5 3 1.5
v 0.5 3 1.5
v -1.5 3 -1.5
v -0.5 3 -1.5
v 0.5 3 -1.5
v 1.5 3 -1.5
v -0.5 4 1.5
v 0.5 4 1.5
v -0.5 4 0.5
v 0.5 4 0.5
v -0.5 4 -0.5
v 0.5 4 -0.5
v -0.5 4 -1.5
v 0.5 4 -1.5
v -0.5 5 0.5
v 0.5 5 0.5
v -0.5 5 -0.5
v 0.5 5 -0.5

# faces
f 3/4/1 2/4/1 1/4/1
f 4/4/1 2/4/1 3/4/1
f 5/4/1 3/4/1 1/4/1
f 5/6/1 4/6/1 3/6/1
f 6/4/1 2/4/1 4/4/1
f 6/6/1 4/6/1 5/6/1
f 7/4/1 5/4/1 1/4/1
f 7/4/1 6/4/1 5/4/1
f 8/4/1 2/4/1 6/4/1
f 8/4/1 6/4/1 7/4/1
f 11/3/1 10/3/1 9/3/1
f 12/3/1 10/3/1 11/3/1
f 15/2/1 14/2/1 13/2/1
f 16/2/1 14/2/1 15/2/1
f 17/2/1 14/2/1 16/2/1
f 18/2/1 14/2/1 17/2/1
f 19/2/1 17/2/1 16/2/1
f 20/2/1 17/2/1 19/2/1
f 21/3/2 22/3/2 23/3/2
f 23/3/2 22/3/2 24/3/2
f 25/2/2 26/2/2 27/2/2
f 27/2/2 26/2/2 28/2/2
f 28/2/2 26/2/2 29/2/2
f 29/2/2 26/2/2 30/2/2
f 28/2/2 29/2/2 31/2/2
f 31/2/2 29/2/2 32/2/2
f 33/4/2 34/4/2 35/4/2
f 35/4/2 34/4/2 36/4/2
f 33/4/2 35/4/2 37/4/2
f 35/6/2 36/6/2 37/6/2
f 36/4/2 34/4/2 38/4/2
f 37/6/2 36/6/2 38/6/2
f 33/4/2 37/4/2 39/4/2
f 37/4/2 38/4/2 39/4/2
f 38/4/2 34/4/2 40/4/2
f 39/4/2 38/4/2 40/4/2
f 43/3/3 42/3/3 41/3/3
f 44/3/3 42/3/3 43/3/3
f 47/4/3 46/4/3 45/4/3
f 48/4/3 46/4/3 47/4/3
f 49/4/3 46/4/3 48/4/3
f 50/1/3 48/1/3 47/1/3
f 51/1/3 48/1/3 50/1/3
f 52/4/3 46/4/3 49/4/3
f 53/4/3 51/4/3 50/4/3
f 53/4/3 52/4/3 51/4/3
f 54/4/3 46/4/3 52/4/3
f 54/4/3 52/4/3 53/4/3
f 57/2/3 56/2/3 55/2/3
f 58/2/3 56/2/3 57/2/3
f 61/2/3 60/2/3 59/2/3
f 62/2/3 60/2/3 61/2/3
f 63/2/4 64/2/4 65/2/4
f 65/2/4 64/2/4 66/2/4
f 67/4/4 68/4/4 69/4/4
f 67/4/4 69/4/4 71/4/4
f 69/2/4 70/2/4 71/2/4
f 71/2/4 70/2/4 72/2/4
f 67/4/4 71/4/4 73/4/4
f 73/4/4 71/4/4 74/4/4
f 79/4/5 76/4/5 75/4/5
f 79/1/5 77/1/5 76/1/5
f 80/4/5 78/4/5 77/4/5
f 80/1/5 77/1/5 79/1/5
f 81/4/5 79/4/5 75/4/5
f 81/4/5 80/4/5 79/4/5
f 82/4/5 78/4/5 80/4/5
f 82/4/5 80/4/5 81/4/5
f 85/3/5 84/3/5 83/3/5
f 86/3/5 84/3/5 85/3/5
f 87/3/6 88/3/6 89/3/6
f 89/3/6 88/3/6 90/3/6
f 91/4/6 92/4/6 93/4/6
f 93/4/6 92/4/6 94/4/6
f 91/4/6 93/4/6 95/4/6
f 95/4/6 93/4/6 96/4/6
f 94/4/6 92/4/6 97/4/6
f 97/4/6 92/4/6 98/4/6
f 99/2/6 100/2/6 101/2/6
f 101/2/6 100/2/6 102/2/6
f 103/2/6 104/2/6 105/2/6
f 105/2/6 104/2/6 106/2/6
f 107/2/6 108/2/6 109/2/6
f 109/2/6 108/2/6 110/2/6
