# MagicaVoxel @ Ephtracy

# group
g gallina2

# material
mtllib gallina2.mtl
usemtl palette

# normals
vn -1 0 0
vn 1 0 0
vn 0 0 1
vn 0 0 -1
vn 0 -1 0
vn 0 1 0

# texcoords
vt 0.146484 0.5
vt 0.208984 0.5
vt 0.912109 0.5
vt 0.990234 0.5

# verts
v -2.5 1 2.5
v -2.5 1 -0.5
v -2.5 2 1.5
v -2.5 2 0.5
v -2.5 3 1.5
v -2.5 3 0.5
v -2.5 4 2.5
v -2.5 4 -0.5
v -1.5 0 3.5
v -1.5 0 -2.5
v -1.5 1 2.5
v -1.5 1 -0.5
v -1.5 4 2.5
v -1.5 4 -0.5
v -1.5 5 3.5
v -1.5 5 -2.5
v -0.5 1 4.5
v -0.5 1 3.5
v -0.5 2 4.5
v -0.5 2 3.5
v -0.5 5 2.5
v -0.5 5 -0.5
v -0.5 6 2.5
v -0.5 6 1.5
v -0.5 7 1.5
v -0.5 7 -0.5
v 1.5 1 4.5
v 1.5 1 3.5
v 1.5 2 4.5
v 1.5 2 3.5
v 1.5 5 2.5
v 1.5 5 -0.5
v 1.5 6 2.5
v 1.5 6 1.5
v 1.5 7 1.5
v 1.5 7 -0.5
v 2.5 0 3.5
v 2.5 0 -2.5
v 2.5 1 2.5
v 2.5 1 -0.5
v 2.5 4 2.5
v 2.5 4 -0.5
v 2.5 5 3.5
v 2.5 5 -2.5
v 3.5 1 2.5
v 3.5 1 -0.5
v 3.5 2 1.5
v 3.5 2 0.5
v 3.5 3 1.5
v 3.5 3 0.5
v 3.5 4 2.5
v 3.5 4 -0.5
v -0.5 1 4.5
v -0.5 2 4.5
v 1.5 1 4.5
v 1.5 2 4.5
v -1.5 0 3.5
v -1.5 5 3.5
v -0.5 1 3.5
v -0.5 2 3.5
v 1.5 1 3.5
v 1.5 2 3.5
v 2.5 0 3.5
v 2.5 5 3.5
v -2.5 1 2.5
v -2.5 4 2.5
v -1.5 1 2.5
v -1.5 4 2.5
v -0.5 5 2.5
v -0.5 6 2.5
v 1.5 5 2.5
v 1.5 6 2.5
v 2.5 1 2.5
v 2.5 4 2.5
v 3.5 1 2.5
v 3.5 4 2.5
v -0.5 6 1.5
v -0.5 7 1.5
v 1.5 6 1.5
v 1.5 7 1.5
v -2.5 1 -0.5
v -2.5 4 -0.5
v -1.5 1 -0.5
v -1.5 4 -0.5
v -0.5 5 -0.5
v -0.5 7 -0.5
v 1.5 5 -0.5
v 1.5 7 -0.5
v 2.5 1 -0.5
v 2.5 4 -0.5
v 3.5 1 -0.5
v 3.5 4 -0.5
v -1.5 0 -2.5
v -1.5 5 -2.5
v 2.5 0 -2.5
v 2.5 5 -2.5
v -1.5 0 3.5
v 2.5 0 3.5
v -1.5 0 -2.5
v 2.5 0 -2.5
v -0.5 1 4.5
v 1.5 1 4.5
v -0.5 1 3.5
v 1.5 1 3.5
v -2.5 1 2.5
v -1.5 1 2.5
v 2.5 1 2.5
v 3.5 1 2.5
v -2.5 1 -0.5
v -1.5 1 -0.5
v 2.5 1 -0.5
v 3.5 1 -0.5
v -0.5 2 4.5
v 1.5 2 4.5
v -0.5 2 3.5
v 1.5 2 3.5
v -2.5 4 2.5
v -1.5 4 2.5
v 2.5 4 2.5
v 3.5 4 2.5
v -2.5 4 -0.5
v -1.5 4 -0.5
v 2.5 4 -0.5
v 3.5 4 -0.5
v -1.5 5 3.5
v 2.5 5 3.5
v -0.5 5 2.5
v 1.5 5 2.5
v -0.5 5 -0.5
v 1.5 5 -0.5
v -1.5 5 -2.5
v 2.5 5 -2.5
v -0.5 6 2.5
v 1.5 6 2.5
v -0.5 6 1.5
v 1.5 6 1.5
v -0.5 7 1.5
v 1.5 7 1.5
v -0.5 7 -0.5
v 1.5 7 -0.5

# faces
f 3/3/1 2/3/1 1/3/1
f 4/3/1 2/3/1 3/3/1
f 5/3/1 3/3/1 1/3/1
f 5/4/1 4/4/1 3/4/1
f 6/3/1 2/3/1 4/3/1
f 6/4/1 4/4/1 5/4/1
f 7/3/1 5/3/1 1/3/1
f 7/3/1 6/3/1 5/3/1
f 8/3/1 2/3/1 6/3/1
f 8/3/1 6/3/1 7/3/1
f 11/3/1 10/3/1 9/3/1
f 12/3/1 10/3/1 11/3/1
f 13/3/1 11/3/1 9/3/1
f 14/3/1 10/3/1 12/3/1
f 15/3/1 13/3/1 9/3/1
f 15/3/1 14/3/1 13/3/1
f 16/3/1 10/3/1 14/3/1
f 16/3/1 14/3/1 15/3/1
f 19/2/1 18/2/1 17/2/1
f 20/2/1 18/2/1 19/2/1
f 23/1/1 22/1/1 21/1/1
f 24/1/1 22/1/1 23/1/1
f 25/1/1 22/1/1 24/1/1
f 26/1/1 22/1/1 25/1/1
f 27/2/2 28/2/2 29/2/2
f 29/2/2 28/2/2 30/2/2
f 31/1/2 32/1/2 33/1/2
f 33/1/2 32/1/2 34/1/2
f 34/1/2 32/1/2 35/1/2
f 35/1/2 32/1/2 36/1/2
f 37/3/2 38/3/2 39/3/2
f 39/3/2 38/3/2 40/3/2
f 37/3/2 39/3/2 41/3/2
f 40/3/2 38/3/2 42/3/2
f 37/3/2 41/3/2 43/3/2
f 41/3/2 42/3/2 43/3/2
f 42/3/2 38/3/2 44/3/2
f 43/3/2 42/3/2 44/3/2
f 45/3/2 46/3/2 47/3/2
f 47/3/2 46/3/2 48/3/2
f 45/3/2 47/3/2 49/3/2
f 47/4/2 48/4/2 49/4/2
f 48/3/2 46/3/2 50/3/2
f 49/4/2 48/4/2 50/4/2
f 45/3/2 49/3/2 51/3/2
f 49/3/2 50/3/2 51/3/2
f 50/3/2 46/3/2 52/3/2
f 51/3/2 50/3/2 52/3/2
f 55/2/3 54/2/3 53/2/3
f 56/2/3 54/2/3 55/2/3
f 59/3/3 58/3/3 57/3/3
f 60/3/3 58/3/3 59/3/3
f 61/3/3 59/3/3 57/3/3
f 62/3/3 58/3/3 60/3/3
f 63/3/3 61/3/3 57/3/3
f 63/3/3 62/3/3 61/3/3
f 64/3/3 58/3/3 62/3/3
f 64/3/3 62/3/3 63/3/3
f 67/3/3 66/3/3 65/3/3
f 68/3/3 66/3/3 67/3/3
f 71/1/3 70/1/3 69/1/3
f 72/1/3 70/1/3 71/1/3
f 75/3/3 74/3/3 73/3/3
f 76/3/3 74/3/3 75/3/3
f 79/1/3 78/1/3 77/1/3
f 80/1/3 78/1/3 79/1/3
f 81/3/4 82/3/4 83/3/4
f 83/3/4 82/3/4 84/3/4
f 85/1/4 86/1/4 87/1/4
f 87/1/4 86/1/4 88/1/4
f 89/3/4 90/3/4 91/3/4
f 91/3/4 90/3/4 92/3/4
f 93/3/4 94/3/4 95/3/4
f 95/3/4 94/3/4 96/3/4
f 99/3/5 98/3/5 97/3/5
f 100/3/5 98/3/5 99/3/5
f 103/2/5 102/2/5 101/2/5
f 104/2/5 102/2/5 103/2/5
f 109/3/5 106/3/5 105/3/5
f 110/3/5 106/3/5 109/3/5
f 111/3/5 108/3/5 107/3/5
f 112/3/5 108/3/5 111/3/5
f 113/2/6 114/2/6 115/2/6
f 115/2/6 114/2/6 116/2/6
f 117/3/6 118/3/6 121/3/6
f 121/3/6 118/3/6 122/3/6
f 119/3/6 120/3/6 123/3/6
f 123/3/6 120/3/6 124/3/6
f 125/3/6 126/3/6 127/3/6
f 127/3/6 126/3/6 128/3/6
f 125/3/6 127/3/6 129/3/6
f 128/3/6 126/3/6 130/3/6
f 125/3/6 129/3/6 131/3/6
f 129/3/6 130/3/6 131/3/6
f 130/3/6 126/3/6 132/3/6
f 131/3/6 130/3/6 132/3/6
f 133/1/6 134/1/6 135/1/6
f 135/1/6 134/1/6 136/1/6
f 137/1/6 138/1/6 139/1/6
f 139/1/6 138/1/6 140/1/6
